<svg width="397" height="388" xmlns="http://www.w3.org/2000/svg">
 <!-- Created with Method Draw - http://github.com/duopixel/Method-Draw/ -->

 <g>
  <title>background</title>
  <rect fill="#fff" id="canvas_background" height="390" width="399" y="-1" x="-1"/>
  <g display="none" overflow="visible" y="0" x="0" height="100%" width="100%" id="canvasGrid">
   <rect fill="url(#gridpattern)" stroke-width="0" y="0" x="0" height="100%" width="100%"/>
  </g>
 </g>
 <g>
  <title>Layer 1</title>
  <!-- Created with Method Draw - http://github.com/duopixel/Method-Draw/ -->
  <g transform="matrix(0.1270247008697692,0,0,0.11581235830568008,0,0) " stroke="null" id="svg_28">
   <title stroke="null" transform="translate(22.78125,0) translate(387.28125,330.328125) translate(11.390625,45.5625) translate(3078.28125,0) translate(0,2078.125) matrix(0.1270247008697692,0,0,0.11581235830568008,-3055.1816628919764,-2169.8102881497625) ">Layer 1</title>
   <g transform="matrix(0.1270247008697692,0,0,0.11581235830568008,0,0) " stroke="null" id="svg_18">
    <g stroke="null" id="svg_21" transform="matrix(0.0690475928180902,0,0,0.053583674480313315,-79.19220729900866,0) ">
     <title stroke="null" transform="translate(329.9354553222656,0) translate(5608.90283203125,6164.7158203125) translate(164.9677276611328,850.3056030273438) translate(44582.01953125,0) translate(0,38782.80078125) ">background</title>
     <rect stroke="null" fill="none" id="svg_22" height="402" width="582" y="49309.30243" x="55806.921737"/>
    </g>
    <g stroke="null" id="svg_19" transform="matrix(0.0690475928180902,0,0,0.053583674480313315,-79.19220729900866,0) ">
     <title stroke="null" transform="translate(329.9354553222656,0) translate(5608.90283203125,6164.7158203125) translate(164.9677276611328,850.3056030273438) translate(44582.01953125,0) translate(0,38782.80078125) ">Layer 1</title>
     <path stroke="null" id="svg_20" d="m56378.275736,49542.933435c-56.384,-95.682 -161.544,-159.631 -281.354,-159.631c-119.86,0 -224.996,63.994 -281.354,159.631a47.999,47.999 0 0 0 0,48.739c56.385,95.681 161.544,159.63 281.354,159.63c119.86,0 224.996,-63.994 281.354,-159.631a47.997,47.997 0 0 0 0,-48.738zm-281.354,160.369c-102.556,0 -192.091,-54.701 -240,-136c44.157,-74.933 123.677,-127.27 216.162,-135.007c9.796,10.085 15.838,23.837 15.838,39.007c0,30.928 -25.072,56 -56,56s-56,-25.072 -56,-56l0.001,-0.042c-10.207,19.085 -16.001,40.886 -16.001,64.042c0,75.111 60.889,136 136,136s136,-60.889 136,-136c0,-31.031 -10.4,-59.629 -27.895,-82.515c55.599,23.153 101.904,63.621 131.895,114.515c-47.908,81.299 -137.444,136 -240,136z" fill="#ffffff"/>
    </g>
   </g>
   <g transform="matrix(0.1270247008697692,0,0,0.11581235830568008,0,0) " stroke="null" id="svg_14">
    <path stroke="null" d="m3743.316195,2634.590085l-13.0184,6.37552c-0.79958,0.38878 -1.12182,1.36113 -0.7275,2.16079l0.66326,1.35852c0.38894,0.79966 1.36121,1.12697 2.16079,0.73803l2.59948,-1.28358l-4.06493,7.18842l-9.14603,0.03287c-0.36691,-0.00554 -0.72512,0.07668 -1.04831,0.23558c-0.32312,0.15328 -0.60432,0.37785 -0.83436,0.67388l-8.64334,11.1678c-0.5476,0.70104 -0.41785,1.72559 0.28866,2.26773l1.19811,0.91999c0.70096,0.54222 1.70935,0.41239 2.25704,-0.28858l7.9266,-10.2585l9.34921,-0.03295c0.40534,0 0.81559,-0.10243 1.16595,-0.29959c0.33413,-0.18623 0.61042,-0.45287 0.81305,-0.75942l4.7495,-8.34383l0.09641,2.80266c0.0274,0.88736 0.78152,1.58396 1.66871,1.55109l1.50831,-0.05474c0.88728,-0.03287 1.58396,-0.78152 1.55109,-1.6688c-0.1753,-4.82515 -0.34395,-9.65869 -0.51323,-14.48392l-0.00008,0.00103l0.00001,0zm-36.5521,0.63109c-0.25198,0 -0.46008,0.2081 -0.46008,0.46008l0,34.80836c0,0.37793 0.14956,0.71633 0.39599,0.96277c0.24651,0.24651 0.59038,0.40636 0.96277,0.40636l34.80844,0c0.2519,0 0.46008,-0.20809 0.46008,-0.45999l0,-1.81851c0,-0.25198 -0.20818,-0.46008 -0.46008,-0.46008l-33.43923,0l0,-33.43915c0,-0.2519 -0.2081,-0.46 -0.46008,-0.46l-1.80781,0l0,0.00016z" clip-rule="evenodd" fill="#31a0c0" fill-rule="evenodd" id="svg_17"/>
    <text stroke="null" x="46788.613876" y="33744.712069" fill="#31a0c0" font-size="5px" font-weight="bold" font-family="'Helvetica Neue', Helvetica, Arial-Unicode, Arial, Sans-serif" id="svg_16" transform="matrix(0.0070501361966569445,0,0,0.006435340001708496,-0.32352508343828035,-0.313950821581912) ">Created by jeff</text>
    <text stroke="null" x="46788.613876" y="33749.712069" fill="#31a0c0" font-size="5px" font-weight="bold" font-family="'Helvetica Neue', Helvetica, Arial-Unicode, Arial, Sans-serif" id="svg_15" transform="matrix(0.0070501361966569445,0,0,0.006435340001708496,-0.32352508343828035,-0.313950821581912) ">from the Noun Project</text>
   </g>
  </g>
  <!-- Created with Method Draw - http://github.com/duopixel/Method-Draw/ -->
  <g transform="matrix(0.08779149650709783,0,0,0.08779149650709783,0,0) " id="svg_52" display="none">
   <rect id="svg_56" width="580" height="400" x="3089.671875" y="2078.125" stroke-width="0" fill="url(#gridpattern)"/>
  </g>
  <g transform="matrix(0.08779149650709783,0,0,0.08779149650709783,0,0) " id="svg_47" stroke="null">
   <g id="svg_50" transform="matrix(0.0690475928180902,0,0,0.053583674480313315,-79.19220729900866,0) " stroke="null">
    <title transform="translate(44582.01953125,0) translate(0,38782.80078125) ">background</title>
    <rect fill="none" id="svg_51" height="402" width="582" y="42294.281006" x="49703.115722" stroke="null"/>
   </g>
   <g id="svg_48" transform="matrix(0.0690475928180902,0,0,0.053583674480313315,-79.19220729900866,0) " stroke="null">
    <title transform="translate(44582.01953125,0) translate(0,38782.80078125) ">Layer 1</title>
    <path id="svg_49" d="m50274.469721,42527.912011c-56.384,-95.682 -161.544,-159.631 -281.354,-159.631c-119.86,0 -224.996,63.994 -281.354,159.631a47.999,47.999 0 0 0 0,48.739c56.385,95.681 161.544,159.63 281.354,159.63c119.86,0 224.996,-63.994 281.354,-159.631a47.997,47.997 0 0 0 0,-48.738zm-281.354,160.369c-102.556,0 -192.091,-54.701 -240,-136c44.157,-74.933 123.677,-127.27 216.162,-135.007c9.796,10.085 15.838,23.837 15.838,39.007c0,30.928 -25.072,56 -56,56s-56,-25.072 -56,-56l0.001,-0.042c-10.207,19.085 -16.001,40.886 -16.001,64.042c0,75.111 60.889,136 136,136s136,-60.889 136,-136c0,-31.031 -10.4,-59.629 -27.895,-82.515c55.599,23.153 101.904,63.621 131.895,114.515c-47.908,81.299 -137.444,136 -240,136z" fill="#ffffff" stroke="null"/>
   </g>
  </g>
  <path stroke="null" d="m384.35548,0.010696l-135.190453,66.207017c-8.303292,4.037312 -11.649615,14.134746 -7.554773,22.438869l6.887668,14.107643c4.038974,8.304123 14.135577,11.703096 22.438869,7.664122l26.994475,-13.329423l-42.21254,74.648632l-94.977565,0.341341c-3.810202,-0.057531 -7.530058,0.796289 -10.886246,2.446396c-3.355461,1.591746 -6.275602,3.923809 -8.664468,6.997952l-89.757347,115.972772c-5.686589,7.279997 -4.339192,17.919506 2.997609,23.549395l12.441854,9.553698c7.279166,5.63072 17.75086,4.282492 23.438384,-2.996778l82.314312,-106.530085l97.087502,-0.342171c4.209281,0 8.469549,-1.063691 12.107886,-3.111113c3.469796,-1.933918 6.338948,-4.702859 8.443173,-7.886248l49.321503,-86.647065l1.001176,29.104412c0.284537,9.21485 8.115747,16.448739 17.328832,16.107399l15.663147,-0.568451c9.214019,-0.341341 16.448739,-8.115747 16.107399,-17.329766c-1.820415,-50.107096 -3.571772,-100.301318 -5.329672,-150.409244l-0.000831,0.010696l0.000104,0zm-379.577748,6.553597c-2.616703,0 -4.777732,2.161028 -4.777732,4.777732l0,361.469762c0,3.92464 1.553116,7.438777 4.112185,9.99795c2.5599,2.5599 6.130841,4.219873 9.99795,4.219873l361.470593,0c2.615873,0 4.777732,-2.160925 4.777732,-4.776797l0,-18.88444c0,-2.616703 -2.161859,-4.777732 -4.777732,-4.777732l-347.251939,0l0,-347.251109c0,-2.615873 -2.161028,-4.776901 -4.777732,-4.776901l-18.773325,0l0,0.001662z" clip-rule="evenodd" fill="#31a0c0" fill-rule="evenodd" id="svg_46"/>
  <text x="41468.163247" y="28999.445292" fill="#31a0c0" font-size="5px" font-weight="bold" font-family="'Helvetica Neue', Helvetica, Arial-Unicode, Arial, Sans-serif" id="svg_45" transform="matrix(0.009914314904389654,0,0,0.009914314904389654,0.42563843727111816,0.42563843727111816) ">Created by jeff</text>
  <text x="41468.163247" y="29004.445292" fill="#31a0c0" font-size="5px" font-weight="bold" font-family="'Helvetica Neue', Helvetica, Arial-Unicode, Arial, Sans-serif" id="svg_44" transform="matrix(0.009914314904389654,0,0,0.009914314904389654,0.42563843727111816,0.42563843727111816) ">from the Noun Project</text>
 </g>
</svg>